<?xml version="1.0" encoding="UTF-8" standalone="no"?>
<!DOCTYPE svg PUBLIC "-//W3C//DTD SVG 1.1//EN"
 "http://www.w3.org/Graphics/SVG/1.1/DTD/svg11.dtd">
<!-- Generated by graphviz version 12.2.1 (20241206.2353)
 -->
<!-- Pages: 1 -->
<svg width="2939pt" height="210pt"
 viewBox="0.00 0.00 2939.00 210.00" xmlns="http://www.w3.org/2000/svg" xmlns:xlink="http://www.w3.org/1999/xlink">
<g id="graph0" class="graph" transform="scale(1 1) rotate(0) translate(4 206)">
<polygon fill="white" stroke="none" points="-4,4 -4,-206 2935,-206 2935,4 -4,4"/>
<!-- 2621214031360 -->
<g id="node1" class="node">
<title>2621214031360</title>
<polygon fill="none" stroke="black" points="1330.5,-81.5 1330.5,-117.5 1518.75,-117.5 1518.75,-81.5 1330.5,-81.5"/>
<text text-anchor="middle" x="1340.38" y="-94.7" font-family="Times New Roman,serif" font-size="14.00"> </text>
<polyline fill="none" stroke="black" points="1350.25,-82 1350.25,-117.5"/>
<text text-anchor="middle" x="1392" y="-94.7" font-family="Times New Roman,serif" font-size="14.00">data: 1.7627</text>
<polyline fill="none" stroke="black" points="1433.75,-82 1433.75,-117.5"/>
<text text-anchor="middle" x="1476.25" y="-94.7" font-family="Times New Roman,serif" font-size="14.00">grad: 0.2500</text>
</g>
<!-- 2621214031504e -->
<g id="node12" class="node">
<title>2621214031504e</title>
<ellipse fill="none" stroke="black" cx="1581.75" cy="-99.5" rx="27" ry="18"/>
<text text-anchor="middle" x="1581.75" y="-94.45" font-family="Times New Roman,serif" font-size="14.00">e</text>
</g>
<!-- 2621214031360&#45;&gt;2621214031504e -->
<g id="edge18" class="edge">
<title>2621214031360&#45;&gt;2621214031504e</title>
<path fill="none" stroke="black" d="M1518.99,-99.5C1527.4,-99.5 1535.55,-99.5 1543.02,-99.5"/>
<polygon fill="black" stroke="black" points="1542.99,-103 1552.99,-99.5 1542.99,-96 1542.99,-103"/>
</g>
<!-- 2621214031360* -->
<g id="node2" class="node">
<title>2621214031360*</title>
<ellipse fill="none" stroke="black" cx="1267.5" cy="-99.5" rx="27" ry="18"/>
<text text-anchor="middle" x="1267.5" y="-94.45" font-family="Times New Roman,serif" font-size="14.00">*</text>
</g>
<!-- 2621214031360*&#45;&gt;2621214031360 -->
<g id="edge1" class="edge">
<title>2621214031360*&#45;&gt;2621214031360</title>
<path fill="none" stroke="black" d="M1294.81,-99.5C1301.99,-99.5 1310.22,-99.5 1318.97,-99.5"/>
<polygon fill="black" stroke="black" points="1318.79,-103 1328.79,-99.5 1318.79,-96 1318.79,-103"/>
</g>
<!-- 2621214030352 -->
<g id="node3" class="node">
<title>2621214030352</title>
<polygon fill="none" stroke="black" points="1647,-136.5 1647,-172.5 1842.75,-172.5 1842.75,-136.5 1647,-136.5"/>
<text text-anchor="middle" x="1658.38" y="-149.7" font-family="Times New Roman,serif" font-size="14.00">1</text>
<polyline fill="none" stroke="black" points="1669.75,-137 1669.75,-172.5"/>
<text text-anchor="middle" x="1711.5" y="-149.7" font-family="Times New Roman,serif" font-size="14.00">data: 1.0000</text>
<polyline fill="none" stroke="black" points="1753.25,-137 1753.25,-172.5"/>
<text text-anchor="middle" x="1798" y="-149.7" font-family="Times New Roman,serif" font-size="14.00">grad: &#45;0.1036</text>
</g>
<!-- 2621214031696+ -->
<g id="node24" class="node">
<title>2621214031696+</title>
<ellipse fill="none" stroke="black" cx="1908" cy="-126.5" rx="27" ry="18"/>
<text text-anchor="middle" x="1908" y="-121.45" font-family="Times New Roman,serif" font-size="14.00">+</text>
</g>
<!-- 2621214030352&#45;&gt;2621214031696+ -->
<g id="edge11" class="edge">
<title>2621214030352&#45;&gt;2621214031696+</title>
<path fill="none" stroke="black" d="M1842.86,-137.65C1852.55,-135.96 1861.91,-134.34 1870.35,-132.87"/>
<polygon fill="black" stroke="black" points="1870.86,-136.33 1880.11,-131.17 1869.66,-129.44 1870.86,-136.33"/>
</g>
<!-- 2620672585760 -->
<g id="node4" class="node">
<title>2620672585760</title>
<polygon fill="none" stroke="black" points="3.75,-55.5 3.75,-91.5 201.75,-91.5 201.75,-55.5 3.75,-55.5"/>
<text text-anchor="middle" x="18.5" y="-68.7" font-family="Times New Roman,serif" font-size="14.00">x2</text>
<polyline fill="none" stroke="black" points="33.25,-56 33.25,-91.5"/>
<text text-anchor="middle" x="75" y="-68.7" font-family="Times New Roman,serif" font-size="14.00">data: 0.0000</text>
<polyline fill="none" stroke="black" points="116.75,-56 116.75,-91.5"/>
<text text-anchor="middle" x="159.25" y="-68.7" font-family="Times New Roman,serif" font-size="14.00">grad: 0.5000</text>
</g>
<!-- 2621214030784* -->
<g id="node26" class="node">
<title>2621214030784*</title>
<ellipse fill="none" stroke="black" cx="268.5" cy="-73.5" rx="27" ry="18"/>
<text text-anchor="middle" x="268.5" y="-68.45" font-family="Times New Roman,serif" font-size="14.00">*</text>
</g>
<!-- 2620672585760&#45;&gt;2621214030784* -->
<g id="edge16" class="edge">
<title>2620672585760&#45;&gt;2621214030784*</title>
<path fill="none" stroke="black" d="M201.84,-73.5C211.65,-73.5 221.15,-73.5 229.72,-73.5"/>
<polygon fill="black" stroke="black" points="229.65,-77 239.65,-73.5 229.65,-70 229.65,-77"/>
</g>
<!-- 2621211998256 -->
<g id="node5" class="node">
<title>2621211998256</title>
<polygon fill="none" stroke="black" points="2.25,-0.5 2.25,-36.5 203.25,-36.5 203.25,-0.5 2.25,-0.5"/>
<text text-anchor="middle" x="18.5" y="-13.7" font-family="Times New Roman,serif" font-size="14.00">w2</text>
<polyline fill="none" stroke="black" points="34.75,-1 34.75,-36.5"/>
<text text-anchor="middle" x="76.5" y="-13.7" font-family="Times New Roman,serif" font-size="14.00">data: 1.0000</text>
<polyline fill="none" stroke="black" points="118.25,-1 118.25,-36.5"/>
<text text-anchor="middle" x="160.75" y="-13.7" font-family="Times New Roman,serif" font-size="14.00">grad: 0.0000</text>
</g>
<!-- 2621211998256&#45;&gt;2621214030784* -->
<g id="edge26" class="edge">
<title>2621211998256&#45;&gt;2621214030784*</title>
<path fill="none" stroke="black" d="M178.92,-36.94C187.95,-39.6 196.98,-42.47 205.5,-45.5 215.61,-49.1 226.34,-53.66 236,-58.06"/>
<polygon fill="black" stroke="black" points="234.42,-61.19 244.97,-62.25 237.39,-54.85 234.42,-61.19"/>
</g>
<!-- 2621214029392 -->
<g id="node6" class="node">
<title>2621214029392</title>
<polygon fill="none" stroke="black" points="1004.25,-109.5 1004.25,-145.5 1195.5,-145.5 1195.5,-109.5 1004.25,-109.5"/>
<text text-anchor="middle" x="1015.62" y="-122.7" font-family="Times New Roman,serif" font-size="14.00">2</text>
<polyline fill="none" stroke="black" points="1027,-110 1027,-145.5"/>
<text text-anchor="middle" x="1068.75" y="-122.7" font-family="Times New Roman,serif" font-size="14.00">data: 2.0000</text>
<polyline fill="none" stroke="black" points="1110.5,-110 1110.5,-145.5"/>
<text text-anchor="middle" x="1153" y="-122.7" font-family="Times New Roman,serif" font-size="14.00">grad: 0.2203</text>
</g>
<!-- 2621214029392&#45;&gt;2621214031360* -->
<g id="edge12" class="edge">
<title>2621214029392&#45;&gt;2621214031360*</title>
<path fill="none" stroke="black" d="M1195.78,-111.46C1207.73,-109.44 1219.33,-107.47 1229.57,-105.74"/>
<polygon fill="black" stroke="black" points="1230.13,-109.2 1239.41,-104.08 1228.96,-102.3 1230.13,-109.2"/>
</g>
<!-- 2621211998304 -->
<g id="node7" class="node">
<title>2621211998304</title>
<polygon fill="none" stroke="black" points="0,-165.5 0,-201.5 205.5,-201.5 205.5,-165.5 0,-165.5"/>
<text text-anchor="middle" x="16.25" y="-178.7" font-family="Times New Roman,serif" font-size="14.00">w1</text>
<polyline fill="none" stroke="black" points="32.5,-166 32.5,-201.5"/>
<text text-anchor="middle" x="76.5" y="-178.7" font-family="Times New Roman,serif" font-size="14.00">data: &#45;3.0000</text>
<polyline fill="none" stroke="black" points="120.5,-166 120.5,-201.5"/>
<text text-anchor="middle" x="163" y="-178.7" font-family="Times New Roman,serif" font-size="14.00">grad: 1.0000</text>
</g>
<!-- 2621214030592* -->
<g id="node17" class="node">
<title>2621214030592*</title>
<ellipse fill="none" stroke="black" cx="268.5" cy="-128.5" rx="27" ry="18"/>
<text text-anchor="middle" x="268.5" y="-123.45" font-family="Times New Roman,serif" font-size="14.00">*</text>
</g>
<!-- 2621211998304&#45;&gt;2621214030592* -->
<g id="edge17" class="edge">
<title>2621211998304&#45;&gt;2621214030592*</title>
<path fill="none" stroke="black" d="M178.92,-165.06C187.95,-162.4 196.98,-159.53 205.5,-156.5 215.61,-152.9 226.34,-148.34 236,-143.94"/>
<polygon fill="black" stroke="black" points="237.39,-147.15 244.97,-139.75 234.42,-140.81 237.39,-147.15"/>
</g>
<!-- 2621214030448 -->
<g id="node8" class="node">
<title>2621214030448</title>
<polygon fill="none" stroke="black" points="1644.75,-26.5 1644.75,-62.5 1845,-62.5 1845,-26.5 1644.75,-26.5"/>
<text text-anchor="middle" x="1658.38" y="-39.7" font-family="Times New Roman,serif" font-size="14.00">&#45;1</text>
<polyline fill="none" stroke="black" points="1672,-27 1672,-62.5"/>
<text text-anchor="middle" x="1716" y="-39.7" font-family="Times New Roman,serif" font-size="14.00">data: &#45;1.0000</text>
<polyline fill="none" stroke="black" points="1760,-27 1760,-62.5"/>
<text text-anchor="middle" x="1802.5" y="-39.7" font-family="Times New Roman,serif" font-size="14.00">grad: 0.1464</text>
</g>
<!-- 2621214179600+ -->
<g id="node19" class="node">
<title>2621214179600+</title>
<ellipse fill="none" stroke="black" cx="1908" cy="-71.5" rx="27" ry="18"/>
<text text-anchor="middle" x="1908" y="-66.45" font-family="Times New Roman,serif" font-size="14.00">+</text>
</g>
<!-- 2621214030448&#45;&gt;2621214179600+ -->
<g id="edge23" class="edge">
<title>2621214030448&#45;&gt;2621214179600+</title>
<path fill="none" stroke="black" d="M1845.17,-61.14C1854.02,-62.62 1862.56,-64.05 1870.32,-65.35"/>
<polygon fill="black" stroke="black" points="1869.5,-68.77 1879.94,-66.97 1870.66,-61.86 1869.5,-68.77"/>
</g>
<!-- 2621214030976 -->
<g id="node9" class="node">
<title>2621214030976</title>
<polygon fill="none" stroke="black" points="676.5,-82.5 676.5,-118.5 869.25,-118.5 869.25,-82.5 676.5,-82.5"/>
<text text-anchor="middle" x="686.38" y="-95.7" font-family="Times New Roman,serif" font-size="14.00"> </text>
<polyline fill="none" stroke="black" points="696.25,-83 696.25,-118.5"/>
<text text-anchor="middle" x="740.25" y="-95.7" font-family="Times New Roman,serif" font-size="14.00">data: &#45;6.0000</text>
<polyline fill="none" stroke="black" points="784.25,-83 784.25,-118.5"/>
<text text-anchor="middle" x="826.75" y="-95.7" font-family="Times New Roman,serif" font-size="14.00">grad: 0.5000</text>
</g>
<!-- 2621214031168+ -->
<g id="node22" class="node">
<title>2621214031168+</title>
<ellipse fill="none" stroke="black" cx="932.25" cy="-72.5" rx="27" ry="18"/>
<text text-anchor="middle" x="932.25" y="-67.45" font-family="Times New Roman,serif" font-size="14.00">+</text>
</g>
<!-- 2621214030976&#45;&gt;2621214031168+ -->
<g id="edge27" class="edge">
<title>2621214030976&#45;&gt;2621214031168+</title>
<path fill="none" stroke="black" d="M869.5,-83.49C878.31,-81.92 886.82,-80.41 894.56,-79.03"/>
<polygon fill="black" stroke="black" points="894.93,-82.52 904.16,-77.32 893.71,-75.62 894.93,-82.52"/>
</g>
<!-- 2621214030976+ -->
<g id="node10" class="node">
<title>2621214030976+</title>
<ellipse fill="none" stroke="black" cx="613.5" cy="-100.5" rx="27" ry="18"/>
<text text-anchor="middle" x="613.5" y="-95.45" font-family="Times New Roman,serif" font-size="14.00">+</text>
</g>
<!-- 2621214030976+&#45;&gt;2621214030976 -->
<g id="edge2" class="edge">
<title>2621214030976+&#45;&gt;2621214030976</title>
<path fill="none" stroke="black" d="M640.84,-100.5C647.98,-100.5 656.17,-100.5 664.89,-100.5"/>
<polygon fill="black" stroke="black" points="664.67,-104 674.67,-100.5 664.67,-97 664.67,-104"/>
</g>
<!-- 2621214031504 -->
<g id="node11" class="node">
<title>2621214031504</title>
<polygon fill="none" stroke="black" points="1649.62,-81.5 1649.62,-117.5 1840.12,-117.5 1840.12,-81.5 1649.62,-81.5"/>
<text text-anchor="middle" x="1660.62" y="-94.7" font-family="Times New Roman,serif" font-size="14.00">e</text>
<polyline fill="none" stroke="black" points="1671.62,-82 1671.62,-117.5"/>
<text text-anchor="middle" x="1713.38" y="-94.7" font-family="Times New Roman,serif" font-size="14.00">data: 5.8284</text>
<polyline fill="none" stroke="black" points="1755.12,-82 1755.12,-117.5"/>
<text text-anchor="middle" x="1797.62" y="-94.7" font-family="Times New Roman,serif" font-size="14.00">grad: 0.0429</text>
</g>
<!-- 2621214031504&#45;&gt;2621214179600+ -->
<g id="edge25" class="edge">
<title>2621214031504&#45;&gt;2621214179600+</title>
<path fill="none" stroke="black" d="M1840.53,-83.05C1851.01,-81.23 1861.16,-79.47 1870.25,-77.89"/>
<polygon fill="black" stroke="black" points="1870.76,-81.35 1880.02,-76.19 1869.57,-74.45 1870.76,-81.35"/>
</g>
<!-- 2621214031504&#45;&gt;2621214031696+ -->
<g id="edge24" class="edge">
<title>2621214031504&#45;&gt;2621214031696+</title>
<path fill="none" stroke="black" d="M1840.53,-115.36C1851.01,-117.12 1861.16,-118.82 1870.25,-120.34"/>
<polygon fill="black" stroke="black" points="1869.57,-123.78 1880.02,-121.98 1870.73,-116.87 1869.57,-123.78"/>
</g>
<!-- 2621214031504e&#45;&gt;2621214031504 -->
<g id="edge3" class="edge">
<title>2621214031504e&#45;&gt;2621214031504</title>
<path fill="none" stroke="black" d="M1609,-99.5C1617.47,-99.5 1627.44,-99.5 1638.06,-99.5"/>
<polygon fill="black" stroke="black" points="1637.82,-103 1647.82,-99.5 1637.82,-96 1637.82,-103"/>
</g>
<!-- 2621211999168 -->
<g id="node13" class="node">
<title>2621211999168</title>
<polygon fill="none" stroke="black" points="677.25,-27.5 677.25,-63.5 868.5,-63.5 868.5,-27.5 677.25,-27.5"/>
<text text-anchor="middle" x="688.62" y="-40.7" font-family="Times New Roman,serif" font-size="14.00">b</text>
<polyline fill="none" stroke="black" points="700,-28 700,-63.5"/>
<text text-anchor="middle" x="741.75" y="-40.7" font-family="Times New Roman,serif" font-size="14.00">data: 6.8814</text>
<polyline fill="none" stroke="black" points="783.5,-28 783.5,-63.5"/>
<text text-anchor="middle" x="826" y="-40.7" font-family="Times New Roman,serif" font-size="14.00">grad: 0.5000</text>
</g>
<!-- 2621211999168&#45;&gt;2621214031168+ -->
<g id="edge14" class="edge">
<title>2621211999168&#45;&gt;2621214031168+</title>
<path fill="none" stroke="black" d="M868.6,-61.75C877.78,-63.33 886.66,-64.85 894.71,-66.23"/>
<polygon fill="black" stroke="black" points="893.9,-69.64 904.35,-67.88 895.08,-62.74 893.9,-69.64"/>
</g>
<!-- 2621214179408 -->
<g id="node14" class="node">
<title>2621214179408</title>
<polygon fill="none" stroke="black" points="2424,-106.5 2424,-142.5 2612.25,-142.5 2612.25,-106.5 2424,-106.5"/>
<text text-anchor="middle" x="2433.88" y="-119.7" font-family="Times New Roman,serif" font-size="14.00"> </text>
<polyline fill="none" stroke="black" points="2443.75,-107 2443.75,-142.5"/>
<text text-anchor="middle" x="2485.5" y="-119.7" font-family="Times New Roman,serif" font-size="14.00">data: 0.1464</text>
<polyline fill="none" stroke="black" points="2527.25,-107 2527.25,-142.5"/>
<text text-anchor="middle" x="2569.75" y="-119.7" font-family="Times New Roman,serif" font-size="14.00">grad: 4.8284</text>
</g>
<!-- 2621214179792* -->
<g id="node28" class="node">
<title>2621214179792*</title>
<ellipse fill="none" stroke="black" cx="2675.25" cy="-98.5" rx="27" ry="18"/>
<text text-anchor="middle" x="2675.25" y="-93.45" font-family="Times New Roman,serif" font-size="14.00">*</text>
</g>
<!-- 2621214179408&#45;&gt;2621214179792* -->
<g id="edge20" class="edge">
<title>2621214179408&#45;&gt;2621214179792*</title>
<path fill="none" stroke="black" d="M2612.49,-108.85C2621.27,-107.38 2629.77,-105.96 2637.51,-104.66"/>
<polygon fill="black" stroke="black" points="2637.83,-108.15 2647.11,-103.05 2636.67,-101.25 2637.83,-108.15"/>
</g>
<!-- 2621214179408** -->
<g id="node15" class="node">
<title>2621214179408**</title>
<ellipse fill="none" stroke="black" cx="2293.88" cy="-126.5" rx="27" ry="18"/>
<text text-anchor="middle" x="2293.88" y="-121.45" font-family="Times New Roman,serif" font-size="14.00">**</text>
</g>
<!-- 2621214179408**&#45;&gt;2621214179408 -->
<g id="edge4" class="edge">
<title>2621214179408**&#45;&gt;2621214179408</title>
<path fill="none" stroke="black" d="M2321.24,-126.26C2344.02,-126.06 2378.5,-125.75 2412.21,-125.44"/>
<polygon fill="black" stroke="black" points="2412.12,-128.95 2422.08,-125.36 2412.05,-121.95 2412.12,-128.95"/>
</g>
<!-- 2621214030592 -->
<g id="node16" class="node">
<title>2621214030592</title>
<polygon fill="none" stroke="black" points="331.5,-110.5 331.5,-146.5 550.5,-146.5 550.5,-110.5 331.5,-110.5"/>
<text text-anchor="middle" x="354.5" y="-123.7" font-family="Times New Roman,serif" font-size="14.00">x1w1</text>
<polyline fill="none" stroke="black" points="377.5,-111 377.5,-146.5"/>
<text text-anchor="middle" x="421.5" y="-123.7" font-family="Times New Roman,serif" font-size="14.00">data: &#45;6.0000</text>
<polyline fill="none" stroke="black" points="465.5,-111 465.5,-146.5"/>
<text text-anchor="middle" x="508" y="-123.7" font-family="Times New Roman,serif" font-size="14.00">grad: 0.5000</text>
</g>
<!-- 2621214030592&#45;&gt;2621214030976+ -->
<g id="edge13" class="edge">
<title>2621214030592&#45;&gt;2621214030976+</title>
<path fill="none" stroke="black" d="M550.95,-110.61C559.68,-109.17 568.06,-107.8 575.67,-106.55"/>
<polygon fill="black" stroke="black" points="576.13,-110.02 585.43,-104.94 575,-103.11 576.13,-110.02"/>
</g>
<!-- 2621214030592*&#45;&gt;2621214030592 -->
<g id="edge5" class="edge">
<title>2621214030592*&#45;&gt;2621214030592</title>
<path fill="none" stroke="black" d="M295.77,-128.5C302.86,-128.5 311.02,-128.5 319.78,-128.5"/>
<polygon fill="black" stroke="black" points="319.64,-132 329.64,-128.5 319.64,-125 319.64,-132"/>
</g>
<!-- 2621214179600 -->
<g id="node18" class="node">
<title>2621214179600</title>
<polygon fill="none" stroke="black" points="2199.75,-53.5 2199.75,-89.5 2388,-89.5 2388,-53.5 2199.75,-53.5"/>
<text text-anchor="middle" x="2209.62" y="-66.7" font-family="Times New Roman,serif" font-size="14.00"> </text>
<polyline fill="none" stroke="black" points="2219.5,-54 2219.5,-89.5"/>
<text text-anchor="middle" x="2261.25" y="-66.7" font-family="Times New Roman,serif" font-size="14.00">data: 4.8284</text>
<polyline fill="none" stroke="black" points="2303,-54 2303,-89.5"/>
<text text-anchor="middle" x="2345.5" y="-66.7" font-family="Times New Roman,serif" font-size="14.00">grad: 0.1464</text>
</g>
<!-- 2621214179600&#45;&gt;2621214179792* -->
<g id="edge22" class="edge">
<title>2621214179600&#45;&gt;2621214179792*</title>
<path fill="none" stroke="black" d="M2388.17,-78.14C2468.25,-83.84 2579.56,-91.76 2636.86,-95.84"/>
<polygon fill="black" stroke="black" points="2636.51,-99.32 2646.73,-96.54 2637.01,-92.34 2636.51,-99.32"/>
</g>
<!-- 2621214179600+&#45;&gt;2621214179600 -->
<g id="edge6" class="edge">
<title>2621214179600+&#45;&gt;2621214179600</title>
<path fill="none" stroke="black" d="M1935.39,-71.5C1986.61,-71.5 2102.05,-71.5 2187.97,-71.5"/>
<polygon fill="black" stroke="black" points="2187.84,-75 2197.84,-71.5 2187.84,-68 2187.84,-75"/>
</g>
<!-- 2620672586000 -->
<g id="node20" class="node">
<title>2620672586000</title>
<polygon fill="none" stroke="black" points="1.5,-110.5 1.5,-146.5 204,-146.5 204,-110.5 1.5,-110.5"/>
<text text-anchor="middle" x="16.25" y="-123.7" font-family="Times New Roman,serif" font-size="14.00">x1</text>
<polyline fill="none" stroke="black" points="31,-111 31,-146.5"/>
<text text-anchor="middle" x="72.75" y="-123.7" font-family="Times New Roman,serif" font-size="14.00">data: 2.0000</text>
<polyline fill="none" stroke="black" points="114.5,-111 114.5,-146.5"/>
<text text-anchor="middle" x="159.25" y="-123.7" font-family="Times New Roman,serif" font-size="14.00">grad: &#45;1.5000</text>
</g>
<!-- 2620672586000&#45;&gt;2621214030592* -->
<g id="edge28" class="edge">
<title>2620672586000&#45;&gt;2621214030592*</title>
<path fill="none" stroke="black" d="M204.19,-128.5C213.25,-128.5 221.98,-128.5 229.92,-128.5"/>
<polygon fill="black" stroke="black" points="229.79,-132 239.79,-128.5 229.79,-125 229.79,-132"/>
</g>
<!-- 2621214031168 -->
<g id="node21" class="node">
<title>2621214031168</title>
<polygon fill="none" stroke="black" points="995.25,-54.5 995.25,-90.5 1204.5,-90.5 1204.5,-54.5 995.25,-54.5"/>
<text text-anchor="middle" x="1015.62" y="-67.7" font-family="Times New Roman,serif" font-size="14.00">logit</text>
<polyline fill="none" stroke="black" points="1036,-55 1036,-90.5"/>
<text text-anchor="middle" x="1077.75" y="-67.7" font-family="Times New Roman,serif" font-size="14.00">data: 0.8814</text>
<polyline fill="none" stroke="black" points="1119.5,-55 1119.5,-90.5"/>
<text text-anchor="middle" x="1162" y="-67.7" font-family="Times New Roman,serif" font-size="14.00">grad: 0.5000</text>
</g>
<!-- 2621214031168&#45;&gt;2621214031360* -->
<g id="edge15" class="edge">
<title>2621214031168&#45;&gt;2621214031360*</title>
<path fill="none" stroke="black" d="M1204.83,-89.45C1213.53,-90.86 1221.9,-92.23 1229.51,-93.47"/>
<polygon fill="black" stroke="black" points="1228.86,-96.91 1239.3,-95.07 1229.99,-90 1228.86,-96.91"/>
</g>
<!-- 2621214031168+&#45;&gt;2621214031168 -->
<g id="edge7" class="edge">
<title>2621214031168+&#45;&gt;2621214031168</title>
<path fill="none" stroke="black" d="M959.49,-72.5C966.61,-72.5 974.8,-72.5 983.56,-72.5"/>
<polygon fill="black" stroke="black" points="983.42,-76 993.42,-72.5 983.42,-69 983.42,-76"/>
</g>
<!-- 2621214031696 -->
<g id="node23" class="node">
<title>2621214031696</title>
<polygon fill="none" stroke="black" points="1971,-108.5 1971,-144.5 2163.75,-144.5 2163.75,-108.5 1971,-108.5"/>
<text text-anchor="middle" x="1980.88" y="-121.7" font-family="Times New Roman,serif" font-size="14.00"> </text>
<polyline fill="none" stroke="black" points="1990.75,-109 1990.75,-144.5"/>
<text text-anchor="middle" x="2032.5" y="-121.7" font-family="Times New Roman,serif" font-size="14.00">data: 6.8284</text>
<polyline fill="none" stroke="black" points="2074.25,-109 2074.25,-144.5"/>
<text text-anchor="middle" x="2119" y="-121.7" font-family="Times New Roman,serif" font-size="14.00">grad: &#45;0.1036</text>
</g>
<!-- 2621214031696&#45;&gt;2621214179408** -->
<g id="edge21" class="edge">
<title>2621214031696&#45;&gt;2621214179408**</title>
<path fill="none" stroke="black" d="M2164.23,-126.5C2196.39,-126.5 2230.39,-126.5 2255.35,-126.5"/>
<polygon fill="black" stroke="black" points="2255.32,-130 2265.32,-126.5 2255.32,-123 2255.32,-130"/>
</g>
<!-- 2621214031696+&#45;&gt;2621214031696 -->
<g id="edge8" class="edge">
<title>2621214031696+&#45;&gt;2621214031696</title>
<path fill="none" stroke="black" d="M1935.34,-126.5C1942.48,-126.5 1950.67,-126.5 1959.39,-126.5"/>
<polygon fill="black" stroke="black" points="1959.17,-130 1969.17,-126.5 1959.17,-123 1959.17,-130"/>
</g>
<!-- 2621214030784 -->
<g id="node25" class="node">
<title>2621214030784</title>
<polygon fill="none" stroke="black" points="333.75,-55.5 333.75,-91.5 548.25,-91.5 548.25,-55.5 333.75,-55.5"/>
<text text-anchor="middle" x="356.75" y="-68.7" font-family="Times New Roman,serif" font-size="14.00">x2w2</text>
<polyline fill="none" stroke="black" points="379.75,-56 379.75,-91.5"/>
<text text-anchor="middle" x="421.5" y="-68.7" font-family="Times New Roman,serif" font-size="14.00">data: 0.0000</text>
<polyline fill="none" stroke="black" points="463.25,-56 463.25,-91.5"/>
<text text-anchor="middle" x="505.75" y="-68.7" font-family="Times New Roman,serif" font-size="14.00">grad: 0.5000</text>
</g>
<!-- 2621214030784&#45;&gt;2621214030976+ -->
<g id="edge19" class="edge">
<title>2621214030784&#45;&gt;2621214030976+</title>
<path fill="none" stroke="black" d="M548.53,-90.37C558.02,-91.87 567.15,-93.32 575.38,-94.62"/>
<polygon fill="black" stroke="black" points="574.82,-98.08 585.24,-96.18 575.91,-91.16 574.82,-98.08"/>
</g>
<!-- 2621214030784*&#45;&gt;2621214030784 -->
<g id="edge9" class="edge">
<title>2621214030784*&#45;&gt;2621214030784</title>
<path fill="none" stroke="black" d="M295.77,-73.5C303.42,-73.5 312.32,-73.5 321.87,-73.5"/>
<polygon fill="black" stroke="black" points="321.82,-77 331.82,-73.5 321.82,-70 321.82,-77"/>
</g>
<!-- 2621214179792 -->
<g id="node27" class="node">
<title>2621214179792</title>
<polygon fill="none" stroke="black" points="2738.25,-80.5 2738.25,-116.5 2931,-116.5 2931,-80.5 2738.25,-80.5"/>
<text text-anchor="middle" x="2750.38" y="-93.7" font-family="Times New Roman,serif" font-size="14.00">L</text>
<polyline fill="none" stroke="black" points="2762.5,-81 2762.5,-116.5"/>
<text text-anchor="middle" x="2804.25" y="-93.7" font-family="Times New Roman,serif" font-size="14.00">data: 0.7071</text>
<polyline fill="none" stroke="black" points="2846,-81 2846,-116.5"/>
<text text-anchor="middle" x="2888.5" y="-93.7" font-family="Times New Roman,serif" font-size="14.00">grad: 1.0000</text>
</g>
<!-- 2621214179792*&#45;&gt;2621214179792 -->
<g id="edge10" class="edge">
<title>2621214179792*&#45;&gt;2621214179792</title>
<path fill="none" stroke="black" d="M2702.59,-98.5C2709.73,-98.5 2717.92,-98.5 2726.64,-98.5"/>
<polygon fill="black" stroke="black" points="2726.42,-102 2736.42,-98.5 2726.42,-95 2726.42,-102"/>
</g>
</g>
</svg>
